<svg xmlns="http://www.w3.org/2000/svg" width="32" height="33" viewBox="0 0 32 33" fill="none">
  <g clip-path="url(#clip0_1_15522)">
    <path d="M7.97606 5.06819H6.8628C7.03025 3.82846 7.71573 3.76618 8.03118 3.73749C8.34633 3.70879 8.58757 3.44461 8.58757 3.12818V1.29731C8.58757 1.12913 8.51831 0.96828 8.39607 0.852708C8.27383 0.737135 8.10925 0.677238 7.94143 0.686477C6.00748 0.795258 3.70215 1.77172 3.70215 5.80592V8.98981C3.70215 9.5213 4.13452 9.95367 4.666 9.95367H7.97612C8.5076 9.95367 8.93998 9.52124 8.93991 8.98975V6.03204C8.93991 5.50056 8.50754 5.06819 7.97606 5.06819ZM7.71634 8.72997H4.92578V5.80592C4.92578 2.99095 6.17762 2.20476 7.36393 1.98286V2.62612C6.54465 2.8755 5.60172 3.612 5.60172 5.68001C5.60172 6.01791 5.87563 6.29182 6.21354 6.29182H7.71634V8.72997Z" fill="white"/>
    <path d="M14.231 5.06819H13.1177C13.2851 3.82846 13.9706 3.76618 14.2861 3.73749C14.6012 3.70879 14.8425 3.44461 14.8425 3.12818V1.29731C14.8425 1.12913 14.7732 0.96828 14.651 0.852708C14.5287 0.737135 14.364 0.677238 14.1963 0.686477C12.2624 0.795258 9.95703 1.77172 9.95703 5.80592V8.98981C9.95703 9.5213 10.3894 9.95367 10.9209 9.95367H14.231C14.7625 9.95367 15.1949 9.52124 15.1949 8.98969V6.03204C15.1949 5.50056 14.7625 5.06819 14.231 5.06819ZM13.9712 8.73004H11.1807V5.80592C11.1807 2.99095 12.4325 2.20476 13.6188 1.98286V2.62612C12.7995 2.8755 11.8566 3.612 11.8566 5.68001C11.8566 6.01791 12.1305 6.29182 12.4684 6.29182H13.9712V8.73004Z" fill="white"/>
    <path d="M17.8395 5.62653C17.7257 5.51273 17.5679 5.44727 17.407 5.44727C17.2461 5.44727 17.0882 5.51273 16.9744 5.62653C16.8606 5.74033 16.7952 5.89817 16.7952 6.05908C16.7952 6.21999 16.8606 6.37784 16.9744 6.49164C17.0882 6.60544 17.2461 6.6709 17.407 6.6709C17.5679 6.6709 17.7257 6.60544 17.8395 6.49164C17.9533 6.37784 18.0188 6.21999 18.0188 6.05908C18.0188 5.89817 17.9533 5.74033 17.8395 5.62653Z" fill="white"/>
    <path d="M20.8495 5.44727H20.0785C19.7406 5.44727 19.4667 5.72118 19.4667 6.05908C19.4667 6.39699 19.7406 6.6709 20.0785 6.6709H20.8495C26.1707 6.6709 30.4998 11.0001 30.4998 16.3213C30.4998 20.8629 27.2787 24.8348 22.8407 25.7656C22.5574 25.8251 22.3545 26.0749 22.3545 26.3644V29.9193L18.586 26.1508C18.4713 26.0361 18.3157 25.9716 18.1534 25.9716H11.2724C5.95123 25.9716 1.62207 21.6425 1.62207 16.3213C1.62207 14.6813 2.04074 13.0619 2.83286 11.6379C2.99719 11.3427 2.89092 10.9701 2.59566 10.8059C2.30033 10.6415 1.9278 10.7478 1.76358 11.0431C0.870454 12.6484 0.398438 14.4736 0.398438 16.3213C0.398438 22.3173 5.27645 27.1953 11.2724 27.1953H17.9L22.5337 31.8289C22.6507 31.946 22.8072 32.0081 22.9664 32.0081C23.0452 32.0081 23.1247 31.9929 23.2004 31.9615C23.429 31.8669 23.5781 31.6438 23.5781 31.3963V26.8492C25.7918 26.2756 27.7935 24.9992 29.2562 23.2185C30.8472 21.2817 31.7235 18.8322 31.7235 16.3213C31.7235 10.3253 26.8455 5.44733 20.8495 5.44727Z" fill="white"/>
    <path d="M23.5902 11.543H8.53174C8.19383 11.543 7.91992 11.8169 7.91992 12.1548C7.91992 12.4927 8.19383 12.7666 8.53174 12.7666H23.5901C23.9281 12.7666 24.202 12.4927 24.202 12.1548C24.202 11.8169 23.9281 11.543 23.5902 11.543Z" fill="white"/>
    <path d="M23.5902 14.8066H8.53174C8.19383 14.8066 7.91992 15.0806 7.91992 15.4185C7.91992 15.7564 8.19383 16.0303 8.53174 16.0303H23.5901C23.9281 16.0303 24.202 15.7564 24.202 15.4185C24.202 15.0806 23.9281 14.8066 23.5902 14.8066Z" fill="white"/>
    <path d="M23.5902 18.0684H8.53174C8.19383 18.0684 7.91992 18.3423 7.91992 18.6802C7.91992 19.018 8.19383 19.292 8.53174 19.292H23.5901C23.9281 19.292 24.202 19.018 24.202 18.6802C24.202 18.3423 23.9281 18.0684 23.5902 18.0684Z" fill="white"/>
    <path d="M23.5903 21.332H15.5637C15.2258 21.332 14.9519 21.606 14.9519 21.9438C14.9519 22.2817 15.2258 22.5557 15.5637 22.5557H23.5903C23.9282 22.5557 24.2021 22.2817 24.2021 21.9438C24.2021 21.606 23.9282 21.332 23.5903 21.332Z" fill="white"/>
    <path d="M12.1212 21.332H12.1113C11.7734 21.332 11.4995 21.606 11.4995 21.9438C11.4995 22.2817 11.7734 22.5557 12.1113 22.5557H12.1212C12.4591 22.5557 12.733 22.2817 12.733 21.9438C12.733 21.606 12.4591 21.332 12.1212 21.332Z" fill="white"/>
  </g>
  <defs>
    <clipPath id="clip0_1_15522">
      <rect width="31.325" height="31.325" fill="white" transform="translate(0.398438 0.683594)"/>
    </clipPath>
  </defs>
</svg>