<svg xmlns="http://www.w3.org/2000/svg" width="32" height="32" viewBox="0 0 32 32" fill="none">
  <g clip-path="url(#clip0_1_15476)">
    <path d="M23.4641 4.82427H23.8924V5.25254C23.8924 5.59045 24.1664 5.86436 24.5042 5.86436C24.842 5.86436 25.116 5.59045 25.116 5.25254V4.82427H25.5443C25.8821 4.82427 26.1561 4.55036 26.1561 4.21245C26.1561 3.87455 25.8821 3.60064 25.5443 3.60064H25.116V3.17236C25.116 2.83446 24.842 2.56055 24.5042 2.56055C24.1664 2.56055 23.8924 2.83446 23.8924 3.17236V3.60064H23.4641C23.1263 3.60064 22.8523 3.87455 22.8523 4.21245C22.8523 4.55036 23.1263 4.82427 23.4641 4.82427Z" fill="white"/>
    <path d="M4.71177 19.9346H4.2835V19.5063C4.2835 19.1684 4.00953 18.8945 3.67168 18.8945C3.33384 18.8945 3.05986 19.1684 3.05986 19.5063V19.9346H2.63159C2.29375 19.9346 2.01978 20.2085 2.01978 20.5464C2.01978 20.8843 2.29375 21.1583 2.63159 21.1583H3.05986V21.5865C3.05986 21.9244 3.33384 22.1983 3.67168 22.1983C4.00953 22.1983 4.2835 21.9244 4.2835 21.5865V21.1583H4.71177C5.04962 21.1583 5.32359 20.8843 5.32359 20.5464C5.32359 20.2085 5.04962 19.9346 4.71177 19.9346Z" fill="white"/>
    <path d="M30.4889 20.9737H30.0606V20.5454C30.0606 20.2075 29.7866 19.9336 29.4488 19.9336C29.1109 19.9336 28.837 20.2075 28.837 20.5454V20.9737H28.4087C28.0708 20.9737 27.7969 21.2476 27.7969 21.5855C27.7969 21.9234 28.0708 22.1973 28.4087 22.1973H28.837V22.6256C28.837 22.9635 29.1109 23.2374 29.4488 23.2374C29.7866 23.2374 30.0606 22.9635 30.0606 22.6256V22.1973H30.4889C30.8267 22.1973 31.1007 21.9234 31.1007 21.5855C31.1007 21.2476 30.8268 20.9737 30.4889 20.9737Z" fill="white"/>
    <path d="M23.8745 18.503L30.0018 14.0716C30.9482 13.3872 31.3273 12.227 30.9675 11.1158C30.6078 10.0047 29.6207 9.28673 28.4528 9.28673H20.8899L18.5754 2.12706C18.216 1.01527 17.2289 0.296875 16.0604 0.296875C14.892 0.296875 13.9048 1.01527 13.5454 2.12706L11.231 9.28667H3.66794C2.50004 9.28667 1.51294 10.0046 1.15325 11.1158C0.793501 12.2269 1.17258 13.3871 2.11894 14.0716L8.24623 18.5029L5.90119 25.6672C5.46662 26.9949 6.1119 28.1606 7.02296 28.7354V31.0101C7.02296 31.348 7.29693 31.6219 7.63478 31.6219H13.3072C13.6451 31.6219 13.9191 31.348 13.9191 31.0101C13.9191 30.6722 13.6451 30.3983 13.3072 30.3983H8.2466V28.4914C8.2466 26.6443 9.7494 25.1415 11.5965 25.1415H13.9158L15.5036 28.6288C15.603 28.847 15.8206 28.9871 16.0604 28.9871C16.3002 28.9871 16.5179 28.847 16.6172 28.6288L18.205 25.1415H20.5244C22.3715 25.1415 23.8743 26.6443 23.8743 28.4914V30.3983H18.8136C18.4757 30.3983 18.2018 30.6722 18.2018 31.0101C18.2018 31.348 18.4757 31.6219 18.8136 31.6219H24.4861C24.824 31.6219 25.0979 31.348 25.0979 31.0101V28.7354C26.0089 28.1606 26.6542 26.9949 26.2196 25.6672L23.8745 18.503ZM13.1705 18.2697H17.4086C17.9645 18.2697 18.4888 18.1324 18.9504 17.8912V19.2639C18.9504 21.1322 17.735 22.4883 16.0605 22.4883C14.4669 22.4883 13.1706 21.1919 13.1706 19.5984V18.2697H13.1705ZM19.5258 14.9289C19.5258 16.0964 18.576 17.0461 17.4086 17.0461H13.1705V16.1342C13.1705 14.9668 14.1202 14.0171 15.2876 14.0171H19.5258V14.9289ZM16.0604 26.8988L14.9213 24.3971V23.5503C15.2833 23.6548 15.6652 23.712 16.0604 23.712C16.4589 23.712 16.8402 23.6556 17.1995 23.5515V24.3971L16.0604 26.8988ZM24.9212 27.2359C24.3741 25.3228 22.6108 23.9179 20.5244 23.9179H18.4231V22.95C19.4958 22.1639 20.174 20.8337 20.174 19.2639V16.8011C20.537 16.2667 20.7493 15.6222 20.7493 14.9288V13.4052C20.7493 13.0673 20.4754 12.7934 20.1375 12.7934H15.2876C13.4454 12.7934 11.9468 14.2921 11.9468 16.1342V19.5983C11.9468 20.9877 12.6399 22.2174 13.6976 22.9626V23.9178H11.5964C9.51 23.9178 7.74668 25.3227 7.19953 27.2358C6.99531 26.9145 6.9154 26.5019 7.06408 26.0478L9.54811 18.4591C9.63089 18.2063 9.54077 17.9289 9.32517 17.773L2.83611 13.0801C2.21922 12.634 2.16373 11.9676 2.31741 11.4927C2.4711 11.0178 2.90666 10.5104 3.66794 10.5104H11.6763C11.9417 10.5104 12.1768 10.3392 12.2585 10.0867L14.7097 2.50352C14.944 1.77876 15.5611 1.52051 16.0604 1.52051C16.5598 1.52051 17.1769 1.77876 17.4111 2.50339L19.8624 10.0867C19.944 10.3392 20.1792 10.5103 20.4446 10.5103H28.4529C29.2142 10.5103 29.6497 11.0177 29.8034 11.4926C29.9571 11.9675 29.9016 12.6339 29.2847 13.0801L22.7956 17.7731C22.5801 17.929 22.4899 18.2064 22.5727 18.4592L25.0567 26.0478C25.2053 26.5019 25.1255 26.9145 24.9212 27.2359Z" fill="white"/>
    <path d="M16.061 30.3984C15.9001 30.3984 15.7423 30.4639 15.6285 30.5777C15.5147 30.6915 15.4492 30.8493 15.4492 31.0103C15.4492 31.1712 15.5146 31.329 15.6285 31.4428C15.7423 31.5566 15.9001 31.6221 16.061 31.6221C16.2219 31.6221 16.3798 31.5566 16.4935 31.4428C16.6073 31.329 16.6729 31.1712 16.6729 31.0103C16.6729 30.8493 16.6074 30.6915 16.4935 30.5777C16.3798 30.4639 16.2219 30.3984 16.061 30.3984Z" fill="white"/>
  </g>
  <defs>
    <clipPath id="clip0_1_15476">
      <rect width="31.325" height="31.325" fill="white" transform="translate(0.398438 0.296875)"/>
    </clipPath>
  </defs>
</svg>