<svg xmlns="http://www.w3.org/2000/svg" width="32" height="32" viewBox="0 0 32 32" fill="none">
  <g clip-path="url(#clip0_1_15486)">
    <path d="M28.9454 1.36914C28.6075 1.36914 28.3336 1.64302 28.3336 1.98096V2.82603H26.8767V1.98096C26.8767 1.64302 26.6026 1.36914 26.2649 1.36914C25.927 1.36914 25.6531 1.64302 25.6531 1.98096V3.43785C25.6531 3.77578 25.927 4.04966 26.2649 4.04966H28.9454C29.2831 4.04966 29.5572 3.77578 29.5572 3.43785V1.98096C29.5572 1.64302 29.2831 1.36914 28.9454 1.36914Z" fill="white"/>
    <path d="M28.9454 13.8555H26.2649C25.927 13.8555 25.6531 14.1294 25.6531 14.4673V17.1478C25.6531 17.4857 25.927 17.7596 26.2649 17.7596H28.9454C29.2831 17.7596 29.5572 17.4857 29.5572 17.1478V14.4673C29.5572 14.1294 29.2831 13.8555 28.9454 13.8555ZM28.3336 16.536H26.8767V15.0791H28.3336V16.536Z" fill="white"/>
    <path d="M28.9454 7H26.2649C25.927 7 25.6531 7.27388 25.6531 7.61182V10.2923C25.6531 10.6303 25.927 10.9042 26.2649 10.9042H28.9454C29.2831 10.9042 29.5572 10.6303 29.5572 10.2923V7.61182C29.5572 7.27388 29.2831 7 28.9454 7ZM28.3336 9.68052H26.8767V8.22363H28.3336V9.68052Z" fill="white"/>
    <path d="M28.9454 20.7109H26.2649C25.927 20.7109 25.6531 20.9848 25.6531 21.3228V24.0033C25.6531 24.3412 25.927 24.6151 26.2649 24.6151H28.9454C29.2831 24.6151 29.5572 24.3412 29.5572 24.0033V21.3228C29.5572 20.9848 29.2831 20.7109 28.9454 20.7109ZM28.3336 23.3915H26.8767V21.9346H28.3336V23.3915Z" fill="white"/>
    <path d="M28.9454 27.5645H26.2649C25.927 27.5645 25.6531 27.8383 25.6531 28.1763V29.6332C25.6531 29.9711 25.927 30.245 26.2649 30.245C26.6026 30.245 26.8767 29.9711 26.8767 29.6332V28.7881H28.3336V29.6332C28.3336 29.9711 28.6075 30.245 28.9454 30.245C29.2831 30.245 29.5572 29.9711 29.5572 29.6332V28.1763C29.5572 27.8383 29.2831 27.5645 28.9454 27.5645Z" fill="white"/>
    <path d="M5.81577 1.36914C5.47784 1.36914 5.20396 1.64302 5.20396 1.98096V2.82603H3.74683V1.98096C3.74683 1.64302 3.47294 1.36914 3.13501 1.36914C2.79732 1.36914 2.52319 1.64302 2.52319 1.98096V3.43785C2.52319 3.77578 2.79732 4.04966 3.13501 4.04966H5.81577C6.15347 4.04966 6.42759 3.77578 6.42759 3.43785V1.98096C6.42759 1.64302 6.15347 1.36914 5.81577 1.36914Z" fill="white"/>
    <path d="M5.81577 13.8555H3.13501C2.79732 13.8555 2.52319 14.1294 2.52319 14.4673V17.1478C2.52319 17.4857 2.79732 17.7596 3.13501 17.7596H5.81577C6.15347 17.7596 6.42759 17.4857 6.42759 17.1478V14.4673C6.42759 14.1294 6.15347 13.8555 5.81577 13.8555ZM5.20396 16.536H3.74683V15.0791H5.20396V16.536Z" fill="white"/>
    <path d="M5.81577 7H3.13501C2.79732 7 2.52319 7.27388 2.52319 7.61182V10.2923C2.52319 10.6303 2.79732 10.9042 3.13501 10.9042H5.81577C6.15347 10.9042 6.42759 10.6303 6.42759 10.2923V7.61182C6.42759 7.27388 6.15347 7 5.81577 7ZM5.20396 9.68052H3.74683V8.22363H5.20396V9.68052Z" fill="white"/>
    <path d="M5.81577 20.7109H3.13501C2.79732 20.7109 2.52319 20.9848 2.52319 21.3228V24.0033C2.52319 24.3412 2.79732 24.6151 3.13501 24.6151H5.81577C6.15347 24.6151 6.42759 24.3412 6.42759 24.0033V21.3228C6.42759 20.9848 6.15347 20.7109 5.81577 20.7109ZM5.20396 23.3915H3.74683V21.9346H5.20396V23.3915Z" fill="white"/>
    <path d="M5.81577 27.5645H3.13501C2.79732 27.5645 2.52319 27.8383 2.52319 28.1763V29.6332C2.52319 29.9711 2.79732 30.245 3.13501 30.245C3.47294 30.245 3.74683 29.9711 3.74683 29.6332V28.7881H5.20396V29.6332C5.20396 29.9711 5.47784 30.245 5.81577 30.245C6.15347 30.245 6.42759 29.9711 6.42759 29.6332V28.1763C6.42759 27.8383 6.15347 27.5645 5.81577 27.5645Z" fill="white"/>
    <path d="M9.03533 25.2849H22.7668C23.7244 25.2849 24.5033 24.5061 24.5033 23.5484V13.0096C24.5033 12.6717 24.2294 12.3978 23.8915 12.3978C23.5538 12.3978 23.2797 12.6717 23.2797 13.0096V23.5484C23.2797 23.8312 23.0498 24.0613 22.7668 24.0613H9.03533C8.75237 24.0613 8.52222 23.8312 8.52222 23.5484V8.06659C8.52222 7.78386 8.75237 7.55371 9.03533 7.55371H22.7668C23.0498 7.55371 23.2797 7.78386 23.2797 8.06659V8.12705C23.2797 8.46499 23.5538 8.73887 23.8915 8.73887C24.2294 8.73887 24.5033 8.46499 24.5033 8.12705V8.06659C24.5033 7.10895 23.7244 6.33008 22.7668 6.33008H9.03533C8.07769 6.33008 7.29858 7.10895 7.29858 8.06659V23.5484C7.29858 24.5061 8.07769 25.2849 9.03533 25.2849Z" fill="white"/>
    <path d="M24.1063 1.36914C23.7684 1.36914 23.4945 1.64302 23.4945 1.98096V2.31316C23.4945 2.59612 23.2644 2.82603 22.9817 2.82603H9.03533C8.75237 2.82603 8.52222 2.59612 8.52222 2.31316V1.98096C8.52222 1.64302 8.24833 1.36914 7.9104 1.36914C7.57271 1.36914 7.29858 1.64302 7.29858 1.98096V2.31316C7.29858 3.27079 8.07769 4.04966 9.03533 4.04966H22.9817C23.9391 4.04966 24.7182 3.27079 24.7182 2.31316V1.98096C24.7182 1.64302 24.4443 1.36914 24.1063 1.36914Z" fill="white"/>
    <path d="M22.9817 27.5645H9.03533C8.07769 27.5645 7.29858 28.3433 7.29858 29.301V29.6332C7.29858 29.9711 7.57271 30.245 7.9104 30.245C8.24833 30.245 8.52222 29.9711 8.52222 29.6332V29.301C8.52222 29.018 8.75237 28.7881 9.03533 28.7881H22.9817C23.2644 28.7881 23.4945 29.018 23.4945 29.301V29.6332C23.4945 29.9711 23.7684 30.245 24.1063 30.245C24.4443 30.245 24.7182 29.9711 24.7182 29.6332V29.301C24.7182 28.3433 23.9391 27.5645 22.9817 27.5645Z" fill="white"/>
    <path d="M1.01025 27.5254C0.672321 27.5254 0.398438 27.7993 0.398438 28.1372V29.6338C0.398438 29.9717 0.672321 30.2456 1.01025 30.2456C1.34819 30.2456 1.62207 29.9717 1.62207 29.6338V28.1372C1.62207 27.7993 1.34819 27.5254 1.01025 27.5254Z" fill="white"/>
    <path d="M1.01025 1.36914C0.672321 1.36914 0.398438 1.64302 0.398438 1.98096V22.9785C0.398438 23.3164 0.672321 23.5903 1.01025 23.5903C1.34819 23.5903 1.62207 23.3164 1.62207 22.9785V1.98096C1.62207 1.64302 1.34819 1.36914 1.01025 1.36914Z" fill="white"/>
    <path d="M31.1116 1.36914C30.7736 1.36914 30.4998 1.64302 30.4998 1.98096V29.6351C30.4998 29.973 30.7736 30.2469 31.1116 30.2469C31.4495 30.2469 31.7234 29.973 31.7234 29.6351V1.98096C31.7234 1.64302 31.4495 1.36914 31.1116 1.36914Z" fill="white"/>
    <path d="M1.57528 25.3876C1.47371 25.1441 1.21966 24.9883 0.956051 25.0122C0.703198 25.0351 0.485716 25.2182 0.419755 25.4634C0.354749 25.706 0.448912 25.9734 0.654205 26.1189C0.863561 26.2674 1.14677 26.2697 1.35827 26.1247C1.59392 25.9631 1.68306 25.6508 1.57528 25.3876Z" fill="white"/>
    <path d="M24.4002 10.1208C24.2544 9.90234 23.9764 9.80029 23.7238 9.8727C23.4808 9.94225 23.3037 10.159 23.2822 10.4107C23.2597 10.6726 23.4158 10.9257 23.6581 11.0256C23.8897 11.1214 24.166 11.0631 24.3376 10.8796C24.5312 10.6726 24.5548 10.3567 24.4002 10.1208Z" fill="white"/>
  </g>
  <defs>
    <clipPath id="clip0_1_15486">
      <rect width="31.325" height="31.325" fill="white" transform="translate(0.398438 0.144531)"/>
    </clipPath>
  </defs>
</svg>