<svg xmlns="http://www.w3.org/2000/svg" width="32" height="32" viewBox="0 0 32 32" fill="none">
  <g clip-path="url(#clip0_1_15552)">
    <path d="M25.6703 14.5293C27.5375 13.3122 28.7746 11.2059 28.7746 8.81555C28.7746 5.05741 25.7171 2 21.959 2C19.4434 2 17.2418 3.37014 16.061 5.40323C14.8801 3.37014 12.6788 2 10.1631 2C6.405 2 3.34735 5.05741 3.34735 8.81555C3.34735 11.2059 4.58437 13.3122 6.4516 14.5293C2.90282 15.9932 0.398438 19.4896 0.398438 23.5606V27.0009C0.398438 28.8621 1.91268 30.3761 3.77371 30.3761H28.3482C30.2095 30.3761 31.7235 28.8621 31.7235 27.0011V23.5606C31.7235 19.4896 29.2191 15.9932 25.6703 14.5293ZM21.959 3.83545C24.705 3.83545 26.9391 6.06954 26.9391 8.81555C26.9391 11.5618 24.705 13.7959 21.959 13.7959C19.2128 13.7959 16.9787 11.5618 16.9787 8.81555C16.9787 6.06954 19.2128 3.83545 21.959 3.83545ZM16.0576 15.7812C15.3913 15.275 14.6586 14.8527 13.8747 14.5293C14.7711 13.945 15.5223 13.1556 16.061 12.2283C16.5994 13.1551 17.3501 13.9441 18.2458 14.5284C17.4693 14.8477 16.7337 15.2678 16.0576 15.7812ZM5.1828 8.81555C5.1828 6.06954 7.41689 3.83545 10.1631 3.83545C12.9091 3.83545 15.1432 6.06954 15.1432 8.81555C15.1432 11.5618 12.9091 13.7959 10.1631 13.7959C7.41689 13.7959 5.1828 11.5618 5.1828 8.81555ZM15.5693 28.5407H3.77371C2.92457 28.5407 2.23389 27.85 2.23389 27.0011V23.5606C2.23389 19.1882 5.79103 15.6313 10.1631 15.6313C14.5352 15.6313 18.0924 19.1885 18.0924 23.5606V27.0011C18.0924 27.85 17.4015 28.5407 16.5526 28.5407H15.5693ZM29.888 27.0011C29.888 27.85 29.1973 28.5407 28.3482 28.5407H19.5545C19.7926 28.0787 19.9278 27.5555 19.9278 27.0011V23.5606C19.9278 21.0612 18.9833 18.7784 17.4335 17.0495C18.7551 16.1299 20.3303 15.6313 21.959 15.6313C26.3311 15.6313 29.888 19.1882 29.888 23.5606V27.0011Z" fill="white"/>
  </g>
  <defs>
    <clipPath id="clip0_1_15552">
      <rect width="31.325" height="31.325" fill="white" transform="translate(0.398438 0.53125)"/>
    </clipPath>
  </defs>
</svg>