<svg fill="white" height="200px" width="200px" version="1.1" id="Layer_1" xmlns="http://www.w3.org/2000/svg" xmlns:xlink="http://www.w3.org/1999/xlink" viewBox="0 0 460.958 460.958" xml:space="preserve" stroke="white"><g id="SVGRepo_bgCarrier" stroke-width="0"></g><g id="SVGRepo_tracerCarrier" stroke-linecap="round" stroke-linejoin="round"></g><g id="SVGRepo_iconCarrier"> <g> <g> <path d="M337.843,23.957c-45.741,0-86.155,25.047-107.364,62.788c-21.209-37.741-61.623-62.788-107.364-62.788 C55.229,23.957,0,79.186,0,147.072c0,54.355,37.736,119.461,112.16,193.506c54.115,53.84,107.363,92.031,109.603,93.631 c2.607,1.861,5.662,2.792,8.716,2.792s6.109-0.931,8.716-2.792c2.24-1.6,55.488-39.79,109.603-93.631 c74.424-74.046,112.16-139.151,112.16-193.506C460.958,79.186,405.729,23.957,337.843,23.957z"></path> </g> </g> </g></svg>