<svg xmlns="http://www.w3.org/2000/svg" width="32" height="32" viewBox="0 0 32 32" fill="none">
  <g clip-path="url(#clip0_1_15557)">
    <path d="M30.9398 13.9413C30.9388 13.9406 30.9381 13.9396 30.9374 13.9389L18.1592 1.16124C17.6145 0.616341 16.8904 0.316406 16.1201 0.316406C15.3499 0.316406 14.6257 0.616341 14.0808 1.16124L1.30935 13.9325C1.30505 13.9368 1.30051 13.9413 1.29644 13.9456C0.177963 15.0705 0.179874 16.8957 1.30194 18.0178C1.81458 18.5307 2.4914 18.8275 3.21531 18.8588C3.24494 18.8617 3.27458 18.8631 3.30445 18.8631H3.8135V28.2665C3.8135 30.1275 5.32775 31.6415 7.18878 31.6415H12.188C12.6949 31.6415 13.1057 31.2304 13.1057 30.7238V23.3514C13.1057 22.5022 13.7967 21.8115 14.6458 21.8115H17.5945C18.4436 21.8115 19.1343 22.5022 19.1343 23.3514V30.7238C19.1343 31.2304 19.5451 31.6415 20.052 31.6415H25.0512C26.9125 31.6415 28.4265 30.1275 28.4265 28.2665V18.8631H28.8988C29.6688 18.8631 30.3929 18.5632 30.9381 18.018C32.0613 16.8943 32.0618 15.0658 30.9398 13.9413ZM29.6401 16.7203C29.442 16.9184 29.1786 17.0276 28.8988 17.0276H27.5088C27.0019 17.0276 26.5911 17.4385 26.5911 17.9454V28.2665C26.5911 29.1154 25.9004 29.806 25.0512 29.806H20.9697V23.3514C20.9697 21.4903 19.4557 19.9761 17.5945 19.9761H14.6458C12.7845 19.9761 11.2703 21.4903 11.2703 23.3514V29.806H7.18878C6.33988 29.806 5.64896 29.1154 5.64896 28.2665V17.9454C5.64896 17.4385 5.23813 17.0276 4.73123 17.0276H3.36515C3.35081 17.0267 3.33671 17.026 3.32213 17.0257C3.04873 17.021 2.79229 16.9125 2.60014 16.7201C2.19147 16.3114 2.19147 15.6463 2.60014 15.2374C2.60038 15.2374 2.60038 15.2371 2.60062 15.2369L2.60134 15.2362L15.379 2.45897C15.5769 2.26084 15.84 2.15186 16.1201 2.15186C16.4 2.15186 16.6631 2.26084 16.8612 2.45897L29.6361 15.2335C29.638 15.2355 29.6401 15.2374 29.642 15.2393C30.0486 15.6487 30.0478 16.3123 29.6401 16.7203Z" fill="white"/>
  </g>
  <defs>
    <clipPath id="clip0_1_15557">
      <rect width="31.325" height="31.325" fill="white" transform="translate(0.398438 0.376953)"/>
    </clipPath>
  </defs>
</svg>