<svg xmlns="http://www.w3.org/2000/svg" width="32" height="33" viewBox="0 0 32 33" fill="none">
  <g clip-path="url(#clip0_1_15515)">
    <path d="M1.64405 31.6161H6.17107C6.46404 31.6161 6.70111 31.379 6.70111 31.086V30.8663H8.25498C8.88957 30.8653 9.50915 31.0583 10.0306 31.4199C10.7292 31.9051 11.5599 32.1642 12.4104 32.1619H15.6511C17.3504 32.1601 18.7275 30.7827 18.7296 29.0834V23.2693C18.726 21.5713 17.3491 20.1963 15.6511 20.195H14.5647C14.6563 19.945 14.7031 19.6807 14.7034 19.4141V16.7831C14.7029 16.2003 14.4663 15.6428 14.0481 15.237C13.6296 14.8315 13.0649 14.6125 12.4823 14.6299C11.3047 14.6938 10.3849 15.6718 10.3935 16.8509V17.0171C10.3961 18.3417 9.67271 19.5609 8.50938 20.1937H6.70111V19.9739C6.70111 19.6812 6.46404 19.4439 6.17107 19.4439H1.64405C1.35134 19.4439 1.11401 19.6812 1.11401 19.9739V31.0858C1.11401 31.3787 1.35134 31.6161 1.64405 31.6161ZM8.6406 21.254C8.72342 21.2537 8.8052 21.2343 8.87922 21.1968C10.4603 20.4043 11.4574 18.7858 11.4538 17.0171V16.8509C11.4406 16.243 11.9072 15.7319 12.5139 15.6894C12.8112 15.6809 13.0993 15.7929 13.3126 16.0002C13.5248 16.2052 13.6443 16.4881 13.6436 16.7831V19.4131C13.6425 19.6993 13.54 19.976 13.354 20.1937H11.9414C11.6487 20.1937 11.4114 20.431 11.4114 20.7237C11.4114 21.0164 11.6487 21.2537 11.9414 21.2537H15.6516C16.7645 21.2543 17.6672 22.1549 17.6701 23.2678V29.0831C17.6688 30.1973 16.7658 31.1003 15.6516 31.1015H12.4093C11.7747 31.1028 11.1549 30.9095 10.6339 30.5472C9.93514 30.063 9.10515 29.8039 8.25498 29.8049H6.70188V21.2537L8.6406 21.254ZM2.17408 20.5042H5.64104V30.556H2.17408V20.5042Z" fill="white"/>
    <path d="M4.48657 27.3184C4.19387 27.3184 3.95654 27.5557 3.95654 27.8484V29.1875C3.95654 29.4804 4.19387 29.7175 4.48657 29.7175C4.77928 29.7175 5.01661 29.4804 5.01661 29.1875V27.8484C5.01661 27.5557 4.77928 27.3184 4.48657 27.3184Z" fill="white"/>
    <path d="M16.4952 12.8061H17.582C17.4901 13.0561 17.4432 13.3204 17.443 13.5869V16.2169C17.4443 17.4079 18.4109 18.3725 19.6022 18.3712H19.664C20.8419 18.3073 21.7614 17.3295 21.7531 16.1501V15.984C21.7498 14.6592 22.4729 13.4392 23.6364 12.8061H25.445V13.0258C25.445 13.3185 25.6823 13.5559 25.975 13.5559H30.502C30.7948 13.5559 31.0321 13.3185 31.0321 13.0258V1.9135C31.0321 1.62079 30.7948 1.38347 30.502 1.38347H25.975C25.6823 1.38347 25.445 1.62079 25.445 1.9135V2.13349H23.8911C23.2568 2.13452 22.6372 1.94119 22.1154 1.5799C21.4172 1.09464 20.5864 0.835577 19.736 0.837906H16.4952C14.7964 0.839718 13.4193 2.21631 13.417 3.91536V9.73047C13.4196 11.429 14.7967 12.8048 16.4952 12.8061ZM26.5053 2.44379H29.9723V12.4958H26.5051V2.44354L26.5053 2.44379ZM14.4771 3.91536C14.4786 2.80146 15.3816 1.89927 16.4952 1.89797H19.7368C20.3714 1.89642 20.9912 2.09001 21.5124 2.45234C22.2112 2.93656 23.0412 3.19563 23.8914 3.19433H25.4445V11.746H23.5055C23.4227 11.7463 23.3409 11.7657 23.2671 11.8032C21.6858 12.5957 20.6889 14.214 20.6923 15.9827V16.1488C20.7057 16.7568 20.2391 17.2679 19.6322 17.3104C19.3364 17.3192 19.0491 17.2081 18.8364 17.0021C18.6236 16.7961 18.5033 16.5127 18.5025 16.2167V13.5867C18.5036 13.3002 18.6063 13.0238 18.7921 12.8061H20.2047C20.4974 12.8061 20.7347 12.5688 20.7347 12.2761C20.7347 11.9834 20.4974 11.746 20.2047 11.746H16.4944C15.3816 11.7455 14.4789 10.8449 14.4763 9.73176L14.4771 3.91536Z" fill="white"/>
    <path d="M27.6594 5.68259C27.9524 5.68259 28.1895 5.44526 28.1895 5.15255V3.81324C28.1895 3.52053 27.9524 3.2832 27.6594 3.2832C27.3667 3.2832 27.1294 3.52053 27.1294 3.81324V5.15255C27.1294 5.44526 27.3667 5.68259 27.6594 5.68259Z" fill="white"/>
  </g>
  <defs>
    <clipPath id="clip0_1_15515">
      <rect width="31.325" height="31.325" fill="white" transform="translate(0.398438 0.837891)"/>
    </clipPath>
  </defs>
</svg>