<svg width="395" height="539" viewBox="0 0 395 539" fill="none" xmlns="http://www.w3.org/2000/svg">
<rect width="395" height="539" rx="10" fill="#191E2E"/>
<path d="M178.65 498H174.1L168.5 489.9V498H164.5V480.5H168.5V488.1L173.85 480.5H178.4L172.5 489.025L178.65 498ZM180.024 484V480.5H183.774V484H180.024ZM180.024 498V485.5H183.774V498H180.024ZM193.519 485.15C194.702 485.15 195.66 485.592 196.394 486.475C197.144 487.342 197.519 488.542 197.519 490.075V498H193.769V490.4C193.769 489.8 193.61 489.35 193.294 489.05C192.994 488.75 192.594 488.6 192.094 488.6C190.877 488.6 190.269 489.3 190.269 490.7V498H186.519V485.5H190.269V486.65C190.919 485.65 192.002 485.15 193.519 485.15ZM210.646 496.45C209.363 497.717 207.796 498.35 205.946 498.35C204.096 498.35 202.53 497.717 201.246 496.45C199.963 495.167 199.321 493.6 199.321 491.75C199.321 489.9 199.963 488.342 201.246 487.075C202.53 485.792 204.096 485.15 205.946 485.15C207.796 485.15 209.363 485.792 210.646 487.075C211.93 488.342 212.571 489.9 212.571 491.75C212.571 493.6 211.93 495.167 210.646 496.45ZM203.896 493.875C204.446 494.425 205.13 494.7 205.946 494.7C206.763 494.7 207.446 494.425 207.996 493.875C208.546 493.325 208.821 492.617 208.821 491.75C208.821 490.883 208.546 490.175 207.996 489.625C207.446 489.075 206.763 488.8 205.946 488.8C205.13 488.8 204.446 489.075 203.896 489.625C203.346 490.175 203.071 490.883 203.071 491.75C203.071 492.617 203.346 493.325 203.896 493.875ZM216.167 486.4C217.167 485.567 218.401 485.15 219.867 485.15C221.334 485.15 222.567 485.583 223.567 486.45C224.567 487.3 225.067 488.525 225.067 490.125V498H221.417V497.025C220.651 497.908 219.576 498.35 218.192 498.35C217.026 498.35 216.042 498.008 215.242 497.325C214.459 496.642 214.067 495.683 214.067 494.45C214.067 493.217 214.459 492.258 215.242 491.575C216.042 490.892 217.026 490.55 218.192 490.55C219.492 490.55 220.567 490.867 221.417 491.5V490.375C221.417 489.192 220.901 488.6 219.867 488.6C219.367 488.6 218.984 488.717 218.717 488.95C218.451 489.183 218.317 489.492 218.317 489.875H214.667C214.667 488.392 215.167 487.233 216.167 486.4ZM219.517 495.7C220.117 495.7 220.584 495.583 220.917 495.35C221.251 495.117 221.417 494.817 221.417 494.45C221.417 494.067 221.251 493.767 220.917 493.55C220.584 493.317 220.117 493.2 219.517 493.2C218.967 493.2 218.542 493.317 218.242 493.55C217.959 493.767 217.817 494.067 217.817 494.45C217.817 494.833 217.959 495.142 218.242 495.375C218.542 495.592 218.967 495.7 219.517 495.7ZM231.235 487.475C231.435 486.758 231.827 486.208 232.41 485.825C232.994 485.442 233.685 485.25 234.485 485.25V489.5C233.619 489.367 232.86 489.508 232.21 489.925C231.56 490.342 231.235 491.067 231.235 492.1V498H227.485V485.5H231.235V487.475ZM239.159 493.25C239.576 494.633 240.551 495.325 242.084 495.325C242.534 495.325 242.959 495.242 243.359 495.075C243.759 494.892 244.051 494.658 244.234 494.375L247.884 494.35C247.484 495.65 246.768 496.642 245.734 497.325C244.701 498.008 243.468 498.35 242.034 498.35C240.001 498.35 238.359 497.725 237.109 496.475C235.859 495.225 235.234 493.65 235.234 491.75C235.234 489.867 235.859 488.3 237.109 487.05C238.376 485.783 239.984 485.15 241.934 485.15C243.751 485.15 245.251 485.775 246.434 487.025C247.634 488.275 248.234 489.85 248.234 491.75C248.234 492.283 248.184 492.783 248.084 493.25H239.159ZM239.134 490.4H244.509C244.143 489.117 243.276 488.475 241.909 488.475C240.476 488.475 239.551 489.117 239.134 490.4ZM251.788 486.4C252.788 485.567 254.021 485.15 255.488 485.15C256.954 485.15 258.188 485.583 259.188 486.45C260.188 487.3 260.688 488.525 260.688 490.125V498H257.038V497.025C256.271 497.908 255.196 498.35 253.813 498.35C252.646 498.35 251.663 498.008 250.863 497.325C250.079 496.642 249.688 495.683 249.688 494.45C249.688 493.217 250.079 492.258 250.863 491.575C251.663 490.892 252.646 490.55 253.813 490.55C255.113 490.55 256.188 490.867 257.038 491.5V490.375C257.038 489.192 256.521 488.6 255.488 488.6C254.988 488.6 254.604 488.717 254.338 488.95C254.071 489.183 253.938 489.492 253.938 489.875H250.288C250.288 488.392 250.788 487.233 251.788 486.4ZM255.138 495.7C255.738 495.7 256.204 495.583 256.538 495.35C256.871 495.117 257.038 494.817 257.038 494.45C257.038 494.067 256.871 493.767 256.538 493.55C256.204 493.317 255.738 493.2 255.138 493.2C254.588 493.2 254.163 493.317 253.863 493.55C253.579 493.767 253.438 494.067 253.438 494.45C253.438 494.833 253.579 495.142 253.863 495.375C254.163 495.592 254.588 495.7 255.138 495.7Z" fill="#404961"/>
<path d="M146.266 483.492C146.266 482.096 145.13 480.961 143.734 480.961C142.339 480.961 141.203 482.096 141.203 483.492C141.203 484.888 142.339 486.023 143.734 486.023C145.13 486.023 146.266 484.888 146.266 483.492ZM142.141 483.492C142.141 482.613 142.856 481.898 143.734 481.898C144.613 481.898 145.328 482.613 145.328 483.492C145.328 484.371 144.613 485.086 143.734 485.086C142.856 485.086 142.141 484.371 142.141 483.492Z" fill="#404961"/>
<path d="M139.645 489.552C140.247 489.246 140.694 488.722 140.903 488.08C141.112 487.437 141.058 486.751 140.751 486.149C140.444 485.546 139.921 485.1 139.278 484.891C138.635 484.682 137.949 484.736 137.347 485.043C136.745 485.35 136.298 485.873 136.089 486.516C135.88 487.158 135.934 487.844 136.241 488.446C136.548 489.049 137.071 489.495 137.714 489.704C137.971 489.788 138.235 489.83 138.498 489.83C138.892 489.83 139.284 489.736 139.645 489.552ZM138.003 488.813C137.599 488.681 137.269 488.4 137.076 488.021C136.883 487.642 136.849 487.21 136.981 486.805C137.112 486.401 137.393 486.071 137.772 485.878C138 485.762 138.246 485.704 138.494 485.704C138.66 485.704 138.826 485.73 138.988 485.782C139.393 485.914 139.722 486.195 139.915 486.574C140.109 486.953 140.143 487.385 140.011 487.79C139.88 488.195 139.598 488.524 139.219 488.717C138.84 488.91 138.408 488.944 138.003 488.813Z" fill="#404961"/>
<path d="M139.009 495.503C139.458 495.829 139.978 495.986 140.494 495.986C141.277 495.986 142.05 495.624 142.545 494.943C142.942 494.396 143.103 493.727 142.997 493.06C142.891 492.392 142.532 491.805 141.985 491.408C141.438 491.01 140.769 490.85 140.101 490.956C139.433 491.061 138.847 491.421 138.449 491.968C137.629 493.097 137.88 494.683 139.009 495.503ZM139.208 492.519C139.458 492.174 139.827 491.948 140.248 491.882C140.332 491.868 140.417 491.862 140.5 491.862C140.834 491.862 141.159 491.966 141.434 492.166C142.145 492.683 142.303 493.681 141.786 494.392C141.27 495.103 140.271 495.261 139.56 494.745C138.849 494.228 138.691 493.23 139.208 492.519Z" fill="#404961"/>
<path d="M146.975 495.986C147.491 495.986 148.012 495.829 148.46 495.503C149.589 494.683 149.84 493.097 149.02 491.968C148.622 491.421 148.036 491.061 147.368 490.956C146.7 490.85 146.031 491.01 145.484 491.408C144.937 491.805 144.578 492.392 144.472 493.059C144.366 493.727 144.527 494.396 144.924 494.943C145.419 495.624 146.192 495.986 146.975 495.986ZM146.035 492.166C146.38 491.916 146.801 491.815 147.221 491.881C147.642 491.948 148.011 492.174 148.261 492.519C148.778 493.23 148.62 494.228 147.909 494.745C147.198 495.261 146.199 495.103 145.683 494.392C145.166 493.681 145.325 492.683 146.035 492.166Z" fill="#404961"/>
<path d="M148.191 484.891C147.548 485.1 147.025 485.546 146.719 486.149C146.412 486.751 146.358 487.437 146.567 488.08C146.775 488.722 147.222 489.246 147.824 489.552C148.186 489.736 148.577 489.829 148.971 489.829C149.234 489.829 149.498 489.788 149.755 489.704C150.398 489.495 150.921 489.049 151.228 488.446C151.535 487.844 151.589 487.158 151.38 486.516C151.171 485.873 150.725 485.35 150.122 485.043C149.52 484.736 148.834 484.682 148.191 484.891ZM149.697 485.878C150.076 486.071 150.357 486.4 150.489 486.805C150.62 487.21 150.586 487.642 150.393 488.021C150.2 488.4 149.87 488.681 149.466 488.813C149.061 488.944 148.629 488.91 148.25 488.717C147.871 488.524 147.59 488.195 147.458 487.79C147.327 487.385 147.361 486.953 147.554 486.574C147.747 486.195 148.076 485.914 148.481 485.782C148.643 485.73 148.809 485.704 148.975 485.704C149.223 485.704 149.469 485.762 149.697 485.878Z" fill="#404961"/>
<path d="M145.342 489C145.342 488.114 144.621 487.393 143.734 487.393C142.848 487.393 142.127 488.114 142.127 489C142.127 489.886 142.848 490.607 143.734 490.607C144.621 490.607 145.342 489.886 145.342 489ZM143.064 489C143.064 488.631 143.365 488.33 143.734 488.33C144.104 488.33 144.404 488.631 144.404 489C144.404 489.369 144.104 489.67 143.734 489.67C143.365 489.67 143.064 489.369 143.064 489Z" fill="#404961"/>
<path d="M156.863 497.707C156.333 497.177 155.628 496.885 154.878 496.885C154.129 496.885 153.424 497.177 152.894 497.707C152.191 498.41 151.257 498.797 150.263 498.797H148.134C149.308 498.269 150.388 497.527 151.325 496.59C153.352 494.563 154.469 491.867 154.469 489C154.469 486.903 153.864 484.871 152.719 483.124C152.577 482.908 152.287 482.847 152.07 482.989C151.854 483.131 151.793 483.422 151.935 483.638C152.979 485.232 153.531 487.086 153.531 489C153.531 494.402 149.136 498.797 143.734 498.797C138.332 498.797 133.938 494.402 133.938 489C133.938 483.598 138.332 479.203 143.734 479.203C145.652 479.203 147.509 479.757 149.104 480.804C149.32 480.947 149.611 480.886 149.753 480.67C149.895 480.453 149.835 480.163 149.619 480.021C147.87 478.873 145.835 478.266 143.734 478.266C140.867 478.266 138.171 479.382 136.144 481.41C134.117 483.437 133 486.133 133 489C133 491.867 134.117 494.563 136.144 496.59C138.171 498.618 140.867 499.734 143.734 499.734H150.263C151.508 499.734 152.677 499.25 153.557 498.37C153.91 498.017 154.379 497.823 154.878 497.823C155.377 497.823 155.847 498.017 156.2 498.37C156.383 498.553 156.68 498.553 156.863 498.37C157.046 498.187 157.046 497.89 156.863 497.707Z" fill="#404961"/>
<path d="M150.997 482.212C151.12 482.212 151.241 482.163 151.328 482.076C151.416 481.988 151.466 481.867 151.466 481.744C151.466 481.62 151.416 481.5 151.328 481.412C151.241 481.325 151.12 481.275 150.997 481.275C150.874 481.275 150.753 481.325 150.666 481.412C150.578 481.5 150.528 481.62 150.528 481.744C150.528 481.867 150.578 481.988 150.666 482.076C150.753 482.163 150.874 482.212 150.997 482.212Z" fill="#404961"/>
<path d="M119.636 314H114.866L107.366 304.13V314H103.226V293H107.366V302.27L114.566 293H119.336L111.566 303.23L119.636 314ZM143.643 308.51C143.303 310.23 142.433 311.65 141.033 312.77C139.633 313.87 138.003 314.42 136.143 314.42C133.883 314.42 131.993 313.66 130.473 312.14C128.973 310.62 128.223 308.74 128.223 306.5C128.223 304.26 128.973 302.38 130.473 300.86C131.993 299.34 133.883 298.58 136.143 298.58C138.003 298.58 139.633 299.13 141.033 300.23C142.433 301.33 143.303 302.74 143.643 304.46H139.563C139.283 303.82 138.833 303.32 138.213 302.96C137.613 302.58 136.923 302.39 136.143 302.39C135.003 302.39 134.043 302.78 133.263 303.56C132.483 304.32 132.093 305.3 132.093 306.5C132.093 307.68 132.483 308.66 133.263 309.44C134.043 310.2 135.003 310.58 136.143 310.58C136.943 310.58 137.643 310.4 138.243 310.04C138.863 309.66 139.303 309.15 139.563 308.51H143.643ZM158.776 312.14C157.236 313.66 155.356 314.42 153.136 314.42C150.916 314.42 149.036 313.66 147.496 312.14C145.976 310.6 145.216 308.72 145.216 306.5C145.216 304.28 145.976 302.41 147.496 300.89C149.036 299.35 150.916 298.58 153.136 298.58C155.356 298.58 157.236 299.35 158.776 300.89C160.316 302.41 161.086 304.28 161.086 306.5C161.086 308.72 160.316 310.6 158.776 312.14ZM150.226 309.47C151.006 310.25 151.976 310.64 153.136 310.64C154.296 310.64 155.266 310.25 156.046 309.47C156.826 308.69 157.216 307.7 157.216 306.5C157.216 305.3 156.826 304.31 156.046 303.53C155.266 302.75 154.296 302.36 153.136 302.36C151.976 302.36 151.006 302.75 150.226 303.53C149.466 304.31 149.086 305.3 149.086 306.5C149.086 307.7 149.466 308.69 150.226 309.47ZM182.974 314H178.624L174.034 307.28V314H170.254V307.28L165.664 314H161.344L166.744 306.41L161.644 299H165.964L170.254 305.51V299H174.034V305.51L178.324 299H182.674L177.544 306.41L182.974 314ZM190.287 298.58C192.047 298.58 193.507 299.1 194.667 300.14C195.827 301.16 196.407 302.6 196.407 304.46V314H192.627V312.71C191.687 313.85 190.327 314.42 188.547 314.42C187.127 314.42 185.927 314.01 184.947 313.19C183.987 312.35 183.507 311.18 183.507 309.68C183.507 308.18 183.987 307.02 184.947 306.2C185.927 305.38 187.127 304.97 188.547 304.97C190.247 304.97 191.607 305.41 192.627 306.29V304.7C192.627 303.02 191.847 302.18 190.287 302.18C189.587 302.18 189.027 302.36 188.607 302.72C188.187 303.06 187.977 303.52 187.977 304.1H184.197C184.197 302.4 184.777 301.06 185.937 300.08C187.117 299.08 188.567 298.58 190.287 298.58ZM189.867 311.54C190.707 311.54 191.377 311.37 191.877 311.03C192.377 310.67 192.627 310.22 192.627 309.68C192.627 309.1 192.377 308.65 191.877 308.33C191.397 307.99 190.727 307.82 189.867 307.82C189.047 307.82 188.427 307.99 188.007 308.33C187.587 308.67 187.377 309.12 187.377 309.68C187.377 310.24 187.587 310.69 188.007 311.03C188.427 311.37 189.047 311.54 189.867 311.54ZM211.58 299V314H207.71V302.72H204.41V307.73C204.41 312.31 202.3 314.46 198.08 314.18V310.55C199.72 310.77 200.54 309.76 200.54 307.52V299H204.41H211.58ZM218.347 308.09C218.587 309.11 219.067 309.89 219.787 310.43C220.527 310.95 221.397 311.21 222.397 311.21C223.077 311.21 223.697 311.07 224.257 310.79C224.817 310.51 225.227 310.15 225.487 309.71L229.297 309.68C228.837 311.18 227.987 312.35 226.747 313.19C225.527 314.01 224.067 314.42 222.367 314.42C219.967 314.42 218.027 313.67 216.547 312.17C215.067 310.67 214.327 308.78 214.327 306.5C214.327 304.24 215.067 302.36 216.547 300.86C218.027 299.34 219.937 298.58 222.277 298.58C224.457 298.58 226.247 299.34 227.647 300.86C229.047 302.38 229.747 304.26 229.747 306.5C229.747 307.14 229.697 307.67 229.597 308.09H218.347ZM218.317 305.06H225.877C225.657 304.04 225.217 303.29 224.557 302.81C223.897 302.31 223.127 302.06 222.247 302.06C221.227 302.06 220.377 302.32 219.697 302.84C219.017 303.36 218.557 304.1 218.317 305.06ZM241.332 299H245.202V314H241.332V308.3H236.262V314H232.392V299H236.262V304.67H241.332V299ZM258.67 299H261.55V314H257.77V305.3L251.62 314H248.74V299H252.52V307.7L258.67 299ZM278.737 298.58C280.957 298.58 282.837 299.35 284.377 300.89C285.917 302.41 286.687 304.28 286.687 306.5C286.687 308.72 285.917 310.6 284.377 312.14C282.837 313.66 280.957 314.42 278.737 314.42C276.857 314.42 275.217 313.85 273.817 312.71C272.417 311.57 271.517 310.1 271.117 308.3H268.957V314H265.087V299H268.957V304.67H271.117C271.517 302.89 272.417 301.43 273.817 300.29C275.217 299.15 276.857 298.58 278.737 298.58ZM275.827 309.47C276.607 310.25 277.577 310.64 278.737 310.64C279.897 310.64 280.867 310.25 281.647 309.47C282.427 308.69 282.817 307.7 282.817 306.5C282.817 305.3 282.427 304.31 281.647 303.53C280.867 302.75 279.897 302.36 278.737 302.36C277.577 302.36 276.607 302.75 275.827 303.53C275.067 304.31 274.687 305.3 274.687 306.5C274.687 307.7 275.067 308.69 275.827 309.47ZM288.586 309.71H292.846V314C292.846 315.26 292.466 316.26 291.706 317C290.966 317.76 289.926 318.15 288.586 318.17V316.43C289.286 316.39 289.786 316.19 290.086 315.83C290.406 315.47 290.566 314.86 290.566 314H288.586V309.71ZM80.2046 330V351H76.0646V333.96H69.1046V351H64.9646V330H69.1046H80.2046ZM96.6955 349.14C95.1555 350.66 93.2755 351.42 91.0555 351.42C88.8355 351.42 86.9555 350.66 85.4155 349.14C83.8955 347.6 83.1355 345.72 83.1355 343.5C83.1355 341.28 83.8955 339.41 85.4155 337.89C86.9555 336.35 88.8355 335.58 91.0555 335.58C93.2755 335.58 95.1555 336.35 96.6955 337.89C98.2355 339.41 99.0055 341.28 99.0055 343.5C99.0055 345.72 98.2355 347.6 96.6955 349.14ZM88.1455 346.47C88.9255 347.25 89.8955 347.64 91.0555 347.64C92.2155 347.64 93.1855 347.25 93.9655 346.47C94.7455 345.69 95.1355 344.7 95.1355 343.5C95.1355 342.3 94.7455 341.31 93.9655 340.53C93.1855 339.75 92.2155 339.36 91.0555 339.36C89.8955 339.36 88.9255 339.75 88.1455 340.53C87.3855 341.31 87.0055 342.3 87.0055 343.5C87.0055 344.7 87.3855 345.69 88.1455 346.47ZM116.368 345.51C116.028 347.23 115.158 348.65 113.758 349.77C112.358 350.87 110.728 351.42 108.868 351.42C106.608 351.42 104.718 350.66 103.198 349.14C101.698 347.62 100.948 345.74 100.948 343.5C100.948 341.26 101.698 339.38 103.198 337.86C104.718 336.34 106.608 335.58 108.868 335.58C110.728 335.58 112.358 336.13 113.758 337.23C115.158 338.33 116.028 339.74 116.368 341.46H112.288C112.008 340.82 111.558 340.32 110.938 339.96C110.338 339.58 109.648 339.39 108.868 339.39C107.728 339.39 106.768 339.78 105.988 340.56C105.208 341.32 104.818 342.3 104.818 343.5C104.818 344.68 105.208 345.66 105.988 346.44C106.768 347.2 107.728 347.58 108.868 347.58C109.668 347.58 110.368 347.4 110.968 347.04C111.588 346.66 112.028 346.15 112.288 345.51H116.368ZM129.018 336V339.63H124.938V351H121.068V339.63H116.928V336H124.938H129.018ZM133.855 345.09C134.095 346.11 134.575 346.89 135.295 347.43C136.035 347.95 136.905 348.21 137.905 348.21C138.585 348.21 139.205 348.07 139.765 347.79C140.325 347.51 140.735 347.15 140.995 346.71L144.805 346.68C144.345 348.18 143.495 349.35 142.255 350.19C141.035 351.01 139.575 351.42 137.875 351.42C135.475 351.42 133.535 350.67 132.055 349.17C130.575 347.67 129.835 345.78 129.835 343.5C129.835 341.24 130.575 339.36 132.055 337.86C133.535 336.34 135.445 335.58 137.785 335.58C139.965 335.58 141.755 336.34 143.155 337.86C144.555 339.38 145.255 341.26 145.255 343.5C145.255 344.14 145.205 344.67 145.105 345.09H133.855ZM133.825 342.06H141.385C141.165 341.04 140.725 340.29 140.065 339.81C139.405 339.31 138.635 339.06 137.755 339.06C136.735 339.06 135.885 339.32 135.205 339.84C134.525 340.36 134.065 341.1 133.825 342.06ZM156.63 335.58C158.65 335.58 160.37 336.35 161.79 337.89C163.23 339.41 163.95 341.28 163.95 343.5C163.95 345.72 163.23 347.6 161.79 349.14C160.37 350.66 158.65 351.42 156.63 351.42C154.55 351.42 152.93 350.7 151.77 349.26V357H147.9V336H151.77V337.74C152.93 336.3 154.55 335.58 156.63 335.58ZM155.91 347.73C157.11 347.73 158.1 347.34 158.88 346.56C159.68 345.76 160.08 344.74 160.08 343.5C160.08 342.26 159.68 341.25 158.88 340.47C158.1 339.67 157.11 339.27 155.91 339.27C154.77 339.27 153.81 339.64 153.03 340.38C152.25 341.1 151.83 342.05 151.77 343.23V343.77C151.83 344.95 152.25 345.91 153.03 346.65C153.81 347.37 154.77 347.73 155.91 347.73ZM186.959 349.14C185.419 350.66 183.539 351.42 181.319 351.42C179.099 351.42 177.219 350.66 175.679 349.14C174.159 347.6 173.399 345.72 173.399 343.5C173.399 341.28 174.159 339.41 175.679 337.89C177.219 336.35 179.099 335.58 181.319 335.58C183.539 335.58 185.419 336.35 186.959 337.89C188.499 339.41 189.269 341.28 189.269 343.5C189.269 345.72 188.499 347.6 186.959 349.14ZM178.409 346.47C179.189 347.25 180.159 347.64 181.319 347.64C182.479 347.64 183.449 347.25 184.229 346.47C185.009 345.69 185.399 344.7 185.399 343.5C185.399 342.3 185.009 341.31 184.229 340.53C183.449 339.75 182.479 339.36 181.319 339.36C180.159 339.36 179.189 339.75 178.409 340.53C177.649 341.31 177.269 342.3 177.269 343.5C177.269 344.7 177.649 345.69 178.409 346.47ZM202.026 336V339.63H197.946V351H194.076V339.63H189.936V336H197.946H202.026ZM218.263 345.51C217.923 347.23 217.053 348.65 215.653 349.77C214.253 350.87 212.623 351.42 210.763 351.42C208.503 351.42 206.613 350.66 205.093 349.14C203.593 347.62 202.843 345.74 202.843 343.5C202.843 341.26 203.593 339.38 205.093 337.86C206.613 336.34 208.503 335.58 210.763 335.58C212.623 335.58 214.253 336.13 215.653 337.23C217.053 338.33 217.923 339.74 218.263 341.46H214.183C213.903 340.82 213.453 340.32 212.833 339.96C212.233 339.58 211.543 339.39 210.763 339.39C209.623 339.39 208.663 339.78 207.883 340.56C207.103 341.32 206.713 342.3 206.713 343.5C206.713 344.68 207.103 345.66 207.883 346.44C208.663 347.2 209.623 347.58 210.763 347.58C211.563 347.58 212.263 347.4 212.863 347.04C213.483 346.66 213.923 346.15 214.183 345.51H218.263ZM228.645 336H232.785L227.685 351C226.985 353.12 225.955 354.67 224.595 355.65C223.235 356.65 221.625 357.1 219.765 357V353.4C220.805 353.42 221.625 353.22 222.225 352.8C222.825 352.4 223.295 351.72 223.635 350.76L217.905 336H222.045L225.675 345.87L228.645 336ZM245.239 336V339.63H241.159V351H237.289V339.63H233.149V336H241.159H245.239ZM261.475 345.51C261.135 347.23 260.265 348.65 258.865 349.77C257.465 350.87 255.835 351.42 253.975 351.42C251.715 351.42 249.825 350.66 248.305 349.14C246.805 347.62 246.055 345.74 246.055 343.5C246.055 341.26 246.805 339.38 248.305 337.86C249.825 336.34 251.715 335.58 253.975 335.58C255.835 335.58 257.465 336.13 258.865 337.23C260.265 338.33 261.135 339.74 261.475 341.46H257.395C257.115 340.82 256.665 340.32 256.045 339.96C255.445 339.58 254.755 339.39 253.975 339.39C252.835 339.39 251.875 339.78 251.095 340.56C250.315 341.32 249.925 342.3 249.925 343.5C249.925 344.68 250.315 345.66 251.095 346.44C251.875 347.2 252.835 347.58 253.975 347.58C254.775 347.58 255.475 347.4 256.075 347.04C256.695 346.66 257.135 346.15 257.395 345.51H261.475ZM274.125 336V339.63H270.045V351H266.175V339.63H262.035V336H270.045H274.125ZM287.171 342.12C287.991 342.5 288.621 343.05 289.061 343.77C289.521 344.49 289.751 345.31 289.751 346.23C289.751 347.63 289.281 348.78 288.341 349.68C287.421 350.56 286.091 351 284.351 351H276.191V344.49V336H279.821H283.091C284.531 336 285.691 336.39 286.571 337.17C287.451 337.95 287.891 338.91 287.891 340.05C287.891 340.75 287.651 341.44 287.171 342.12ZM279.821 339.12V341.55H283.991C284.151 341.27 284.231 340.97 284.231 340.65C284.231 340.19 284.071 339.82 283.751 339.54C283.451 339.24 283.041 339.1 282.521 339.12H279.821ZM284.021 347.79C285.321 347.79 285.971 347.23 285.971 346.11C285.971 345.03 285.321 344.49 284.021 344.49H279.821V347.79H284.021ZM299.631 336H303.771L298.671 351C297.971 353.12 296.941 354.67 295.581 355.65C294.221 356.65 292.611 357.1 290.751 357V353.4C291.791 353.42 292.611 353.22 293.211 352.8C293.811 352.4 294.281 351.72 294.621 350.76L288.891 336H293.031L296.661 345.87L299.631 336ZM308.493 345.09C308.733 346.11 309.213 346.89 309.933 347.43C310.673 347.95 311.543 348.21 312.543 348.21C313.223 348.21 313.843 348.07 314.403 347.79C314.963 347.51 315.373 347.15 315.633 346.71L319.443 346.68C318.983 348.18 318.133 349.35 316.893 350.19C315.673 351.01 314.213 351.42 312.513 351.42C310.113 351.42 308.173 350.67 306.693 349.17C305.213 347.67 304.473 345.78 304.473 343.5C304.473 341.24 305.213 339.36 306.693 337.86C308.173 336.34 310.083 335.58 312.423 335.58C314.603 335.58 316.393 336.34 317.793 337.86C319.193 339.38 319.893 341.26 319.893 343.5C319.893 344.14 319.843 344.67 319.743 345.09H308.493ZM308.463 342.06H316.023C315.803 341.04 315.363 340.29 314.703 339.81C314.043 339.31 313.273 339.06 312.393 339.06C311.373 339.06 310.523 339.32 309.843 339.84C309.163 340.36 308.703 341.1 308.463 342.06ZM332.69 336V339.63H328.61V351H324.74V339.63H320.6V336H328.61H332.69Z" fill="#404961"/>
<path d="M213.363 234.365C213.363 233.325 212.52 232.482 211.481 232.482H173.643C172.604 232.482 171.761 233.325 171.761 234.365C171.761 235.404 172.604 236.247 173.643 236.247H211.481C212.52 236.247 213.363 235.404 213.363 234.365Z" fill="#404961"/>
<path d="M235.868 250.45H227.746V220.137C227.746 219.097 226.903 218.254 225.864 218.254C224.824 218.254 223.981 219.097 223.981 220.137V250.45H185.508C184.469 250.45 183.625 251.293 183.625 252.333C183.625 258.343 178.736 263.233 172.727 263.235C166.717 263.233 161.827 258.343 161.827 252.333V191.114H163.953V193.723C163.953 194.763 164.796 195.606 165.836 195.606H176.373C177.412 195.606 178.255 194.763 178.255 193.723V191.114H207.553V193.723C207.553 194.763 208.396 195.606 209.436 195.606H219.973C221.012 195.606 221.855 194.763 221.855 193.723V191.114H223.981V205.078C223.981 206.117 224.824 206.96 225.864 206.96C226.903 206.96 227.746 206.117 227.746 205.078V189.231C227.746 188.192 226.903 187.349 225.864 187.349H221.855V184.74C221.855 183.7 221.012 182.857 219.973 182.857H216.587V172.882C216.587 171.843 215.744 171 214.704 171C213.665 171 212.822 171.843 212.822 172.882V182.857H209.436C208.397 182.857 207.554 183.7 207.554 184.74V187.349H178.255V184.74C178.255 183.7 177.412 182.857 176.373 182.857H172.987V172.882C172.987 171.843 172.144 171 171.105 171C170.065 171 169.222 171.843 169.222 172.882V182.857H165.836C164.796 182.857 163.953 183.7 163.953 184.74V187.349H159.945C158.906 187.349 158.062 188.192 158.062 189.231V252.333C158.062 260.412 164.632 266.99 172.711 266.999C172.715 266.999 172.718 267 172.723 267H223.083C231.171 267 237.751 260.42 237.751 252.333C237.751 251.293 236.908 250.45 235.868 250.45ZM211.318 186.622H218.09V191.841H211.318V186.622ZM167.718 186.622H174.491V191.841H167.718V186.622ZM223.083 263.235H182.531C185.076 260.945 186.819 257.777 187.277 254.215H233.823C232.928 259.333 228.453 263.235 223.083 263.235Z" fill="#404961"/>
<path d="M173.642 227.758H211.48C212.159 227.758 212.786 227.393 213.119 226.801C213.453 226.209 213.442 225.484 213.091 224.902L197.06 198.366C196.719 197.802 196.108 197.457 195.449 197.457C194.79 197.457 194.178 197.802 193.837 198.366L187.449 208.941L186.172 206.829C185.831 206.265 185.22 205.92 184.561 205.92C183.901 205.92 183.291 206.265 182.949 206.829L172.031 224.902C171.679 225.484 171.669 226.209 172.002 226.801C172.336 227.393 172.963 227.758 173.642 227.758ZM195.449 202.98L208.143 223.994H196.542L189.647 212.582L195.449 202.98ZM184.561 211.443L192.143 223.994H176.979L184.561 211.443Z" fill="#404961"/>
<path d="M179.835 239.256C178.795 239.256 177.953 240.099 177.953 241.138C177.953 242.177 178.795 243.021 179.835 243.021H197.745C198.784 243.021 199.627 242.177 199.627 241.138C199.627 240.099 198.784 239.256 197.745 239.256H179.835Z" fill="#404961"/>
<path d="M206.854 240.093C206.406 239.424 205.547 239.1 204.771 239.329C204.024 239.548 203.479 240.207 203.412 240.984C203.345 241.765 203.797 242.531 204.511 242.851C205.22 243.169 206.066 243.019 206.618 242.469C207.246 241.842 207.346 240.829 206.854 240.093Z" fill="#404961"/>
<path d="M227.609 211.887C227.308 211.158 226.557 210.685 225.77 210.727C224.987 210.77 224.299 211.31 224.071 212.06C223.845 212.8 224.11 213.629 224.726 214.099C225.358 214.584 226.253 214.614 226.917 214.172C227.654 213.681 227.947 212.705 227.609 211.887Z" fill="#404961"/>
</svg>
