<svg xmlns="http://www.w3.org/2000/svg" width="32" height="33" viewBox="0 0 32 33" fill="none">
  <g clip-path="url(#clip0_1_15507)">
    <path d="M28.5875 27.859C34.0399 21.57 32.1428 11.7931 24.7273 7.9792C22.5857 3.83206 18.2571 0.990234 13.277 0.990234C6.17596 0.990234 0.39894 6.76762 0.39894 13.869C0.39894 16.9953 1.50559 19.9521 3.53371 22.2914L0.671994 25.1156C0.091991 25.6881 0.493771 26.6826 1.31226 26.6866L8.2231 26.7195C10.6046 30.1849 14.5388 32.3153 18.8442 32.3153C18.8531 32.3153 30.802 32.2541 30.809 32.2541C31.6247 32.2502 32.0311 31.2574 31.4492 30.6831L28.5875 27.859ZM5.46173 21.6707C3.38051 19.5856 2.23427 16.8149 2.23427 13.869C2.23427 7.77969 7.18803 2.82569 13.277 2.82569C19.3659 2.82569 24.3196 7.77969 24.3196 13.869C24.3196 19.7041 19.7021 24.9593 12.9189 24.9063L3.54227 24.8617L5.45683 22.9723C5.8189 22.6148 5.82105 22.0307 5.46173 21.6707ZM18.8442 30.4798C15.624 30.4798 12.6308 29.1039 10.5501 26.7305C14.0439 26.7535 13.1164 26.7477 13.277 26.7477C21.5611 26.7477 27.7468 18.9771 25.8002 10.8639C30.8762 15.0105 31.2919 22.5973 26.6595 27.2382C26.3001 27.5983 26.3023 28.1824 26.6644 28.5398L28.5789 30.4292C28.5716 30.4292 18.8513 30.4798 18.8442 30.4798Z" fill="white"/>
    <path d="M7.80145 11.146H18.8136C19.3204 11.146 19.7312 10.7351 19.7312 10.2283C19.7312 9.72144 19.3204 9.31055 18.8136 9.31055H7.80145C7.29462 9.31055 6.88379 9.72144 6.88379 10.2283C6.88379 10.7351 7.29469 11.146 7.80145 11.146Z" fill="white"/>
    <path d="M7.80145 14.8179H18.8136C19.3204 14.8179 19.7312 14.407 19.7312 13.9001C19.7312 13.3933 19.3204 12.9824 18.8136 12.9824H7.80145C7.29462 12.9824 6.88379 13.3933 6.88379 13.9001C6.88379 14.407 7.29469 14.8179 7.80145 14.8179Z" fill="white"/>
    <path d="M7.80145 18.4878H18.8136C19.3204 18.4878 19.7312 18.0769 19.7312 17.5701C19.7312 17.0632 19.3204 16.6523 18.8136 16.6523H7.80145C7.29462 16.6523 6.88379 17.0632 6.88379 17.5701C6.88379 18.0769 7.29469 18.4878 7.80145 18.4878Z" fill="white"/>
  </g>
  <defs>
    <clipPath id="clip0_1_15507">
      <rect width="31.325" height="31.325" fill="white" transform="translate(0.398438 0.990234)"/>
    </clipPath>
  </defs>
</svg>