<svg xmlns="http://www.w3.org/2000/svg" xmlns:xlink="http://www.w3.org/1999/xlink" viewBox="0,0,256,256" width="48px" height="48px" fill-rule="nonzero"><g fill="#c0bfbf" fill-rule="nonzero" stroke="none" stroke-width="1" stroke-linecap="butt" stroke-linejoin="miter" stroke-miterlimit="10" stroke-dasharray="" stroke-dashoffset="0" font-family="none" font-weight="none" font-size="none" text-anchor="none" style="mix-blend-mode: normal"><g transform="scale(5.33333,5.33333)"><path d="M45.763,35.202c-1.797,-3.234 -6.426,-7.12 -8.337,-8.811c-0.523,-0.463 -0.579,-1.264 -0.103,-1.776c3.647,-3.919 6.564,-8.422 7.568,-11.143c0.443,-1.202 -0.474,-2.472 -1.766,-2.472h-3.753c-1.237,0 -1.961,0.444 -2.306,1.151c-3.031,6.211 -5.631,8.899 -7.451,10.47c-1.019,0.88 -2.608,0.151 -2.608,-1.188c0,-2.58 0,-5.915 0,-8.28c0,-1.147 -0.938,-2.075 -2.095,-2.075l-6.856,-0.078c-0.863,0 -1.356,0.977 -0.838,1.662l1.132,1.625c0.426,0.563 0.656,1.248 0.656,1.951l-0.006,7.318c0,1.273 -1.543,1.895 -2.459,1.003c-3.099,-3.018 -5.788,-9.181 -6.756,-12.128c-0.28,-0.853 -1.079,-1.429 -1.985,-1.431l-3.697,-0.009c-1.387,0 -2.401,1.315 -2.024,2.639c3.378,11.857 10.309,23.137 22.661,24.36c1.217,0.12 2.267,-0.86 2.267,-2.073v-3.846c0,-1.103 0.865,-2.051 1.977,-2.079c0.039,-0.001 0.078,-0.001 0.117,-0.001c3.267,0 6.926,4.755 8.206,6.979c0.368,0.64 1.056,1.03 1.8,1.03h4.973c1.451,0 2.382,-1.539 1.683,-2.798z"></path></g></g></svg>